name Walk1.mot
datacolumns 19
datarows 20
range 2.05500000 2.15000000
endheader

                time	   L_ground_force_vx	   L_ground_force_vy	   L_ground_force_vz	   L_ground_force_px	   L_ground_force_py	   L_ground_force_pz	   R_ground_force_vx	   R_ground_force_vy	   R_ground_force_vz	   R_ground_force_px	   R_ground_force_py	   R_ground_force_pz	   L_ground_torque_x	   L_ground_torque_y	   L_ground_torque_z	   R_ground_torque_x	   R_ground_torque_y	   R_ground_torque_z	
          2.05500000	          0.12952692	          0.10445935	         -0.01563622	          0.00103377	          0.00000000	          0.00051141	         -9.03492113	        885.16577607	        -74.50955761	          0.23189395	          0.00000000	          0.13890405	          0.00000000	         -0.00160021	          0.00000000	          0.00000000	         10.17568453	          0.00000000	
          2.06000000	          0.12607482	          0.18233127	         -0.00896365	          0.00063741	          0.00000000	          0.00033129	         -7.59297491	        884.47617202	        -73.82385510	          0.23271162	          0.00000000	          0.13883988	          0.00000000	         -0.00102096	          0.00000000	          0.00000000	          9.86774778	          0.00000000	
          2.06500000	          0.11389006	          0.21784883	         -0.00397574	          0.00033281	          0.00000000	          0.00018958	         -6.18483420	        884.21181186	        -73.00782851	          0.23355497	          0.00000000	          0.13877428	          0.00000000	         -0.00056876	          0.00000000	          0.00000000	          9.55941899	          0.00000000	
          2.07000000	          0.09706889	          0.22339634	         -0.00046266	          0.00011116	          0.00000000	          0.00008371	         -4.79180782	        884.43793539	        -72.13535662	          0.23442615	          0.00000000	          0.13870970	          0.00000000	         -0.00023379	          0.00000000	          0.00000000	          9.25252906	          0.00000000	
          2.07500000	          0.07860482	          0.20928590	          0.00182680	         -0.00003977	          0.00000000	          0.00000920	         -3.39880048	        885.18885724	        -71.27879092	          0.23532764	          0.00000000	          0.13864905	          0.00000000	         -0.00000049	          0.00000000	          0.00000000	          8.94891696	          0.00000000	
          2.08000000	          0.06054748	          0.18368517	          0.00315051	         -0.00013342	          0.00000000	         -0.00003931	         -1.99492875	        886.46625793	        -70.50516143	          0.23625993	          0.00000000	          0.13859525	          0.00000000	          0.00014916	          0.00000000	          0.00000000	          8.65048518	          0.00000000	
          2.08500000	          0.04417908	          0.15274064	          0.00375021	         -0.00018292	          0.00000000	         -0.00006731	         -0.57305887	        888.23999707	        -69.87238207	          0.23722217	          0.00000000	          0.13855145	          0.00000000	          0.00023333	          0.00000000	          0.00000000	          8.35903349	          0.00000000	
          2.09000000	          0.03018831	          0.12081657	          0.00383819	         -0.00020019	          0.00000000	         -0.00007994	          0.86971414	        890.45398548	        -69.42660099	          0.23821274	          0.00000000	          0.13852018	          0.00000000	          0.00026886	          0.00000000	          0.00000000	          8.07583599	          0.00000000	
          2.09500000	          0.01882878	          0.09078916	          0.00359106	         -0.00019544	          0.00000000	         -0.00008172	          2.33176755	        893.03332033	        -69.20131359	          0.23922977	          0.00000000	          0.13850256	          0.00000000	          0.00027037	          0.00000000	          0.00000000	          7.80169790	          0.00000000	
          2.10000000	          0.01005499	          0.06435283	          0.00314857	         -0.00017694	          0.00000000	         -0.00007640	          3.80802417	        895.89425036	        -69.21613765	          0.24027187	          0.00000000	          0.13849980	          0.00000000	          0.00024996	          0.00000000	          0.00000000	          7.53697757	          0.00000000	
          2.10500000	          0.00363331	          0.04231020	          0.00261579	         -0.00015108	          0.00000000	         -0.00006694	          5.29074425	        898.95352562	        -69.47700653	          0.24133944	          0.00000000	          0.13851283	          0.00000000	          0.00021711	          0.00000000	          0.00000000	          7.28195199	          0.00000000	
          2.11000000	         -0.00077214	          0.02482846	          0.00206726	         -0.00012254	          0.00000000	         -0.00005558	          6.77016677	        902.13394740	        -69.97746136	          0.24243422	          0.00000000	          0.13854129	          0.00000000	          0.00017886	          0.00000000	          0.00000000	          7.03694996	          0.00000000	
          2.11500000	         -0.00353621	          0.01165413	          0.00155200	         -0.00009455	          0.00000000	         -0.00004390	          8.23636458	        905.36709972	        -70.69926554	          0.24355716	          0.00000000	          0.13858367	          0.00000000	          0.00014019	          0.00000000	          0.00000000	          6.80190581	          0.00000000	
          2.12000000	         -0.00502908	          0.00228398	          0.00109883	         -0.00006913	          0.00000000	         -0.00003294	          9.68110671	        908.59521019	        -71.61371263	          0.24470921	          0.00000000	          0.13863819	          0.00000000	          0.00010431	          0.00000000	          0.00000000	          6.57597108	          0.00000000	
          2.12500000	         -0.00558868	         -0.00390554	          0.00072131	         -0.00004735	          0.00000000	         -0.00002331	         11.09911950	        911.77164768	        -72.68321005	          0.24589029	          0.00000000	          0.13870306	          0.00000000	          0.00007305	          0.00000000	          0.00000000	          6.35754556	          0.00000000	
          2.13000000	         -0.00550555	         -0.00756589	          0.00042217	         -0.00002965	          0.00000000	         -0.00001529	         12.48848584	        914.86044386	        -73.86385229	          0.24709797	          0.00000000	          0.13877591	          0.00000000	          0.00004722	          0.00000000	          0.00000000	          6.14448489	          0.00000000	
          2.13500000	         -0.00501682	         -0.00931482	          0.00019695	         -0.00001595	          0.00000000	         -0.00000893	         13.85036785	        917.83679358	        -75.10871659	          0.24832844	          0.00000000	          0.13885450	          0.00000000	          0.00002693	          0.00000000	          0.00000000	          5.93447162	          0.00000000	
          2.14000000	         -0.00430664	         -0.00969969	          0.00003695	         -0.00000590	          0.00000000	         -0.00000415	         15.18801221	        920.68772554	        -76.37114951	          0.24957871	          0.00000000	          0.13893762	          0.00000000	          0.00001178	          0.00000000	          0.00000000	          5.72530119	          0.00000000	
          2.14500000	         -0.00351061	         -0.00917937	         -0.00006858	          0.00000101	          0.00000000	         -0.00000076	         16.50537589	        923.41014273	        -77.60672724	          0.25084747	          0.00000000	          0.13902440	          0.00000000	          0.00000114	          0.00000000	          0.00000000	          5.51472077	          0.00000000	
          2.15000000	         -0.00272248	         -0.00811973	         -0.00013084	          0.00000536	          0.00000000	          0.00000148	         17.80589680	        926.00416558	        -78.77595729	          0.25213372	          0.00000000	          0.13911305	          0.00000000	         -0.00000578	          0.00000000	          0.00000000	          5.30057980	          0.00000000	
